<svg class="max-w-sm w-full" height="187.499995pt" viewBox="0 0 375 187.499995" width="375pt" xmlns="http://www.w3.org/2000/svg" xmlns:xlink="http://www.w3.org/1999/xlink">
  <clipPath id="a">
    <path d="m12.363281 43.636719h62.636719v57.363281h-62.636719zm0 0" />
  </clipPath>
  <clipPath id="b">
    <path d="m23 44h88.101562v84.164062h-88.101562zm0 0" />
  </clipPath>
  <symbol id="c" overflow="visible">
    <path d="m.796875 0 4.375-45.328125h15.359375l4.328125 45.328125h-8.609375l-.625-7.328125h-5.5l-.515625 7.328125zm10.015625-14.5625h4.125l-2.015625-23.0625h-.421875zm0 0" />
  </symbol>
  <symbol id="d" overflow="visible">
    <path d="m5.546875 0-4.859375-45.328125h8.859375l2.53125 28.59375 2.53125-28.59375h8.453125l2.421875 28.59375 2.421875-28.59375h8.984375l-4.96875 45.328125h-10.875l-2.265625-21.84375-2.15625 21.84375zm0 0" />
  </symbol>
  <symbol id="e" overflow="visible">
    <path d="m12.765625.421875c-4.117187 0-7.089844-1.019531-8.921875-3.0625-1.824219-2.039063-2.734375-5.328125-2.734375-9.859375v-4.4375h8.921875v5.640625c0 2.25.71875 3.375 2.15625 3.375.8125 0 1.375-.234375 1.6875-.703125.320312-.476562.484375-1.28125.484375-2.40625 0-1.476562-.179687-2.695312-.53125-3.65625-.355469-.96875-.808594-1.773438-1.359375-2.421875-.542969-.65625-1.515625-1.671875-2.921875-3.046875l-3.90625-3.90625c-3.023437-2.957031-4.53125-6.226562-4.53125-9.8125 0-3.875.882813-6.820312 2.65625-8.84375 1.78125-2.019531 4.378906-3.03125 7.796875-3.03125 4.070312 0 7.003906 1.085938 8.796875 3.25 1.800781 2.167969 2.703125 5.554688 2.703125 10.15625h-9.234375l-.0625-3.109375c0-.601563-.167969-1.078125-.5-1.421875-.335937-.351562-.796875-.53125-1.390625-.53125-.710938 0-1.242188.195312-1.59375.578125-.34375.386719-.515625.914063-.515625 1.578125 0 1.480469.84375 3.011719 2.53125 4.59375l5.28125 5.0625c1.226563 1.199219 2.242187 2.335938 3.046875 3.40625.8125 1.074219 1.460938 2.339844 1.953125 3.796875.5 1.460937.75 3.195313.75 5.203125 0 4.46875-.820313 7.855469-2.453125 10.15625-1.636719 2.304688-4.339844 3.453125-8.109375 3.453125zm0 0" />
  </symbol>
  <symbol id="f" overflow="visible" />
  <symbol id="g" overflow="visible">
    <path d="m2-45.328125h12.296875c3.3125 0 5.710937.8125 7.203125 2.4375 1.5 1.617187 2.25 4.25 2.25 7.90625v2c0 4.335937-1.554688 6.921875-4.65625 7.765625 1.90625.492188 3.242188 1.636719 4.015625 3.4375.769531 1.792969 1.15625 4.164062 1.15625 7.109375 0 4.824219-.71875 8.476563-2.15625 10.953125-1.4375 2.480469-4.042969 3.71875-7.8125 3.71875h-12.296875zm10.71875 17.046875c.769531 0 1.296875-.289062 1.578125-.875.28125-.582031.421875-1.398438.421875-2.453125v-4.53125c0-1.476563-.652344-2.21875-1.953125-2.21875h-1.890625v10.078125zm-.953125 20.3125c2.351563 0 3.53125-1.125 3.53125-3.375v-5.640625c0-1.375-.203125-2.410156-.609375-3.109375-.398438-.707031-1.105469-1.0625-2.125-1.0625h-1.6875v13.140625zm0 0" />
  </symbol>
  <symbol id="h" overflow="visible">
    <path d="m1.578125 0v-45.328125h8.765625v45.328125zm0 0" />
  </symbol>
  <symbol id="i" overflow="visible">
    <path d="m5.90625 0v-36.625h-5.375v-8.703125h19.84375v8.703125h-5.390625v36.625zm0 0" />
  </symbol>
  <symbol id="j" overflow="visible">
    <path d="m2 0v-45.328125h18.15625v8.765625h-8.921875v8.8125h8.546875v8.546875h-8.546875v10.390625h9.5v8.8125zm0 0" />
  </symbol>
  <g clip-path="url(#a)">
    <path d="m65.417969 43.640625h-44.289063c-4.835937 0-8.753906 3.933594-8.753906 8.789063v29.636718c0 4.855469 3.917969 8.789063 8.753906 8.789063h1.03125v9.824219l9.785156-9.824219h33.472657c4.832031 0 8.753906-3.933594 8.753906-8.789063v-29.636718c0-4.855469-3.921875-8.789063-8.753906-8.789063" fill="#dcccfd" />
  </g>
  <path d="m37.429688 68.972656c0 1.984375-1.601563 3.597656-3.582032 3.597656-1.980468 0-3.582031-1.613281-3.582031-3.597656 0-1.988281 1.601563-3.597656 3.582031-3.597656 1.980469 0 3.582032 1.609375 3.582032 3.597656" fill="#5e17eb" />
  <path d="m46.855469 68.972656c0 1.984375-1.601563 3.597656-3.582031 3.597656-1.980469 0-3.585938-1.613281-3.585938-3.597656 0-1.988281 1.605469-3.597656 3.585938-3.597656 1.980468 0 3.582031 1.609375 3.582031 3.597656" fill="#5e17eb" />
  <path d="m56.28125 68.972656c0 1.984375-1.605469 3.597656-3.582031 3.597656-1.980469 0-3.585938-1.613281-3.585938-3.597656 0-1.988281 1.605469-3.597656 3.585938-3.597656 1.976562 0 3.582031 1.609375 3.582031 3.597656" fill="#5e17eb" />
  <path d="m57.175781 68.972656h44.285157c4.835937 0 8.753906 3.933594 8.753906 8.785156v29.640626c0 4.851562-3.917969 8.789062-8.753906 8.789062h-1.027344v9.824219l-9.785156-9.824219h-33.472657c-4.835937 0-8.753906-3.9375-8.753906-8.789062v-29.640626c0-4.851562 3.917969-8.785156 8.753906-8.785156" fill="#dcccfd" />
  <g clip-path="url(#b)">
    <path d="m2031.776296 2487.119138h1012.752935c110.592584 0 200.192231-89.60869 200.192231-200.12904v-675.224168c0-110.52035-89.599647-200.218026-200.192231-200.218026h-23.494225v-223.79926l-223.775787 223.79926h-765.482923c-110.592585 0-200.192232 89.697676-200.192232 200.218026v675.224168c0 110.52035 89.599647 200.12904 200.192232 200.12904zm0 0" fill="none" stroke="#fff" stroke-miterlimit="10" stroke-width="40" transform="matrix(.0437275 0 0 -.0438975 -31.668721 178.150866)" />
  </g>
  <path d="m73.476562 93.484375c0 1.984375-1.601562 3.597656-3.582031 3.597656s-3.585937-1.613281-3.585937-3.597656c0-1.988281 1.605468-3.597656 3.585937-3.597656s3.582031 1.609375 3.582031 3.597656" fill="#5e17eb" />
  <path d="m82.902344 93.484375c0 1.984375-1.605469 3.597656-3.582032 3.597656-1.980468 0-3.585937-1.613281-3.585937-3.597656 0-1.988281 1.605469-3.597656 3.585937-3.597656 1.976563 0 3.582032 1.609375 3.582032 3.597656" fill="#5e17eb" />
  <path d="m92.328125 93.484375c0 1.984375-1.605469 3.597656-3.582031 3.597656-1.980469 0-3.585938-1.613281-3.585938-3.597656 0-1.988281 1.605469-3.597656 3.585938-3.597656 1.976562 0 3.582031 1.609375 3.582031 3.597656" fill="#5e17eb" />
  <use fill="#fff" x="115.884203" xlink:href="#c" y="127.972169" />
  <use fill="#fff" x="141.476222" xlink:href="#d" y="127.972169" />
  <use fill="#fff" x="179.046362" xlink:href="#e" y="127.972169" />
  <use fill="#100f0d" x="203.370474" xlink:href="#f" y="127.972169" />
  <g fill="#ffde59">
    <use x="215.716569" xlink:href="#g" y="127.972169" />
    <use x="240.991985" xlink:href="#h" y="127.972169" />
    <use x="252.970106" xlink:href="#i" y="127.972169" />
    <use x="273.86586" xlink:href="#j" y="127.972169" />
    <use x="295.60589" xlink:href="#e" y="127.972169" />
  </g>
</svg>