<svg class="h-12 w:auto max-w-full pr-1" clip-rule="evenodd" fill-rule="evenodd" stroke-miterlimit="10" viewBox="0 0 307 85" xmlns="http://www.w3.org/2000/svg" xmlns:xlink="http://www.w3.org/1999/xlink">
  <clipPath id="a">
    <path clip-rule="evenodd" d="m0 0h306.559v91.177h-306.559z" />
  </clipPath>
  <g transform="scale(1 .923226)">
    <path d="m0 0h306.559v91.177h-306.559z" fill="none" />
    <g clip-path="url(#a)">
      <path d="m65.418 43.641h-44.289c-4.836 0-8.754 3.933-8.754 8.789v29.636c0 4.856 3.918 8.789 8.754 8.789h1.031v9.825l9.785-9.825h33.473c4.832 0 8.754-3.933 8.754-8.789v-29.636c0-4.856-3.922-8.789-8.754-8.789" fill="#dcccfd" fill-rule="nonzero" transform="matrix(1 0 0 1.08316 -12.375 -47.2697)" />
      <path d="m37.43 68.973c0 1.984-1.602 3.597-3.582 3.597-1.981 0-3.582-1.613-3.582-3.597 0-1.989 1.601-3.598 3.582-3.598 1.98 0 3.582 1.609 3.582 3.598" fill="#5e17eb" fill-rule="nonzero" transform="matrix(1 0 0 1.08316 -12.375 -47.2697)" />
      <path d="m46.855 68.973c0 1.984-1.601 3.597-3.582 3.597-1.98 0-3.585-1.613-3.585-3.597 0-1.989 1.605-3.598 3.585-3.598 1.981 0 3.582 1.609 3.582 3.598" fill="#5e17eb" fill-rule="nonzero" transform="matrix(1 0 0 1.08316 -12.375 -47.2697)" />
      <path d="m56.281 68.973c0 1.984-1.605 3.597-3.582 3.597-1.98 0-3.586-1.613-3.586-3.597 0-1.989 1.606-3.598 3.586-3.598 1.977 0 3.582 1.609 3.582 3.598" fill="#5e17eb" fill-rule="nonzero" transform="matrix(1 0 0 1.08316 -12.375 -47.2697)" />
      <path d="m57.176 68.973h44.285c4.836 0 8.754 3.933 8.754 8.785v29.64c0 4.852-3.918 8.79-8.754 8.79h-1.027v9.824l-9.786-9.824h-33.472c-4.836 0-8.754-3.938-8.754-8.79v-29.64c0-4.852 3.918-8.785 8.754-8.785" fill="#dcccfd" fill-rule="nonzero" transform="matrix(1 0 0 1.08316 -12.375 -47.2697)" />
      <path d="m2031.78 2487.12h1012.75c110.59 0 200.19-89.61 200.19-200.13v-675.22c0-110.52-89.6-200.22-200.19-200.22h-23.5v-223.8l-223.77 223.8h-765.48c-110.6 0-200.2 89.7-200.2 200.22v675.22c0 110.52 89.6 200.13 200.2 200.13z" fill="none" stroke="#fff" stroke-width="40" transform="matrix(.0437275 0 0 -.0475479 -44.0437 145.696)" />
      <g fill-rule="nonzero">
        <path d="m73.477 93.484c0 1.985-1.602 3.598-3.582 3.598-1.981 0-3.586-1.613-3.586-3.598 0-1.988 1.605-3.597 3.586-3.597 1.98 0 3.582 1.609 3.582 3.597" fill="#5e17eb" transform="matrix(1 0 0 1.08316 -12.375 -47.2697)" />
        <path d="m82.902 93.484c0 1.985-1.605 3.598-3.582 3.598-1.98 0-3.586-1.613-3.586-3.598 0-1.988 1.606-3.597 3.586-3.597 1.977 0 3.582 1.609 3.582 3.597" fill="#5e17eb" transform="matrix(1 0 0 1.08316 -12.375 -47.2697)" />
        <path d="m92.328 93.484c0 1.985-1.605 3.598-3.582 3.598-1.98 0-3.586-1.613-3.586-3.598 0-1.988 1.606-3.597 3.586-3.597 1.977 0 3.582 1.609 3.582 3.597" fill="#5e17eb" transform="matrix(1 0 0 1.08316 -12.375 -47.2697)" />
        <path class="text-gray-900 dark:text-gray-100" d="m.797 0 4.375-45.328h15.359l4.328 45.328h-8.609l-.625-7.328h-5.5l-.516 7.328zm10.016-14.563h4.125l-2.016-23.062h-.422z" fill="currentcolor" transform="matrix(1 0 0 1.08316 103.509 91.3444)" />
        <path class="text-gray-900 dark:text-gray-100" d="m5.547 0-4.859-45.328h8.859l2.531 28.594 2.531-28.594h8.454l2.421 28.594 2.422-28.594h8.985l-4.969 45.328h-10.875l-2.266-21.844-2.156 21.844z" fill="currentcolor" transform="matrix(1 0 0 1.08316 129.101 91.3444)" />
        <path class="text-gray-900 dark:text-gray-100" d="m12.766.422c-4.118 0-7.09-1.02-8.922-3.063-1.824-2.039-2.735-5.328-2.735-9.859v-4.438h8.922v5.641c0 2.25.719 3.375 2.157 3.375.812 0 1.375-.234 1.687-.703.32-.477.484-1.281.484-2.406 0-1.477-.179-2.696-.531-3.657-.355-.968-.808-1.773-1.359-2.421-.543-.657-1.516-1.672-2.922-3.047l-3.906-3.907c-3.024-2.957-4.532-6.226-4.532-9.812 0-3.875.883-6.82 2.657-8.844 1.781-2.019 4.379-3.031 7.797-3.031 4.07 0 7.003 1.086 8.796 3.25 1.801 2.168 2.704 5.555 2.704 10.156h-9.235l-.062-3.109c0-.602-.168-1.078-.5-1.422-.336-.352-.797-.531-1.391-.531-.711 0-1.242.195-1.594.578-.343.387-.515.914-.515 1.578 0 1.48.843 3.012 2.531 4.594l5.281 5.062c1.227 1.199 2.242 2.336 3.047 3.406.813 1.075 1.461 2.34 1.953 3.797.5 1.461.75 3.196.75 5.203 0 4.469-.82 7.856-2.453 10.157-1.637 2.304-4.34 3.453-8.109 3.453z" fill="currentcolor" transform="matrix(1 0 0 1.08316 166.671 91.3444)" />
        <path class="text-secondary-500" d="m2-45.328h12.297c3.312 0 5.711.812 7.203 2.437 1.5 1.618 2.25 4.25 2.25 7.907v2c0 4.336-1.555 6.921-4.656 7.765 1.906.492 3.242 1.637 4.015 3.438.77 1.793 1.157 4.164 1.157 7.109 0 4.824-.719 8.477-2.157 10.953-1.437 2.481-4.043 3.719-7.812 3.719h-12.297zm10.719 17.047c.769 0 1.297-.289 1.578-.875.281-.582.422-1.399.422-2.453v-4.532c0-1.476-.653-2.218-1.953-2.218h-1.891v10.078zm-.953 20.312c2.351 0 3.531-1.125 3.531-3.375v-5.64c0-1.375-.203-2.411-.609-3.11-.399-.707-1.106-1.062-2.125-1.062h-1.688v13.14z" fill="currentcolor" transform="matrix(1 0 0 1.08316 203.342 91.3444)" />
        <path class="text-secondary-500" d="m1.578-45.328h8.766v45.328h-8.766z" fill="currentcolor" transform="matrix(1 0 0 1.08316 228.617 91.3444)" />
        <path class="text-secondary-500" d="m5.906 0v-36.625h-5.375v-8.703h19.844v8.703h-5.391v36.625z" fill="currentcolor" transform="matrix(1 0 0 1.08316 240.595 91.3444)" />
        <path class="text-secondary-500" d="m2 0v-45.328h18.156v8.765h-8.922v8.813h8.547v8.547h-8.547v10.39h9.5v8.813z" fill="currentcolor" transform="matrix(1 0 0 1.08316 261.491 91.3444)" />
        <path class="text-secondary-500" d="m12.766.422c-4.118 0-7.09-1.02-8.922-3.063-1.824-2.039-2.735-5.328-2.735-9.859v-4.438h8.922v5.641c0 2.25.719 3.375 2.157 3.375.812 0 1.375-.234 1.687-.703.32-.477.484-1.281.484-2.406 0-1.477-.179-2.696-.531-3.657-.355-.968-.808-1.773-1.359-2.421-.543-.657-1.516-1.672-2.922-3.047l-3.906-3.907c-3.024-2.957-4.532-6.226-4.532-9.812 0-3.875.883-6.82 2.657-8.844 1.781-2.019 4.379-3.031 7.797-3.031 4.07 0 7.003 1.086 8.796 3.25 1.801 2.168 2.704 5.555 2.704 10.156h-9.235l-.062-3.109c0-.602-.168-1.078-.5-1.422-.336-.352-.797-.531-1.391-.531-.711 0-1.242.195-1.594.578-.343.387-.515.914-.515 1.578 0 1.48.843 3.012 2.531 4.594l5.281 5.062c1.227 1.199 2.242 2.336 3.047 3.406.813 1.075 1.461 2.34 1.953 3.797.5 1.461.75 3.196.75 5.203 0 4.469-.82 7.856-2.453 10.157-1.637 2.304-4.34 3.453-8.109 3.453z" fill="currentcolor" transform="matrix(1 0 0 1.08316 283.231 91.3444)" />
      </g>
    </g>
  </g>
</svg>